<?xml version="1.0" encoding="UTF-8"?>
<!DOCTYPE svg PUBLIC "-//W3C//DTD SVG 1.1//EN" "http://www.w3.org/Graphics/SVG/1.1/DTD/svg11.dtd">
<!-- Creator: CorelDRAW 2020 (64-Bit) -->
<svg xmlns="http://www.w3.org/2000/svg" xml:space="preserve" width="11.811in" height="11.811in" version="1.1" style="shape-rendering:geometricPrecision; text-rendering:geometricPrecision; image-rendering:optimizeQuality; fill-rule:evenodd; clip-rule:evenodd"
viewBox="0 0 11811.02 11811.02"
 xmlns:xlink="http://www.w3.org/1999/xlink"
 xmlns:xodm="http://www.corel.com/coreldraw/odm/2003">
 <defs>
  <style type="text/css">
   <![CDATA[
    .fil0 {fill:#373435}
    .fil1 {fill:#373435;fill-rule:nonzero}
   ]]>
  </style>
 </defs>
 <g id="Layer_x0020_1">
  <metadata id="CorelCorpID_0Corel-Layer"/>
  <g id="_2698415463424">
   <path class="fil0" d="M1432.46 6382.94l3285.63 0 0 -463.68 -1050.26 0c-257.9,-375.64 -408.9,-830.39 -408.9,-1320.46 0,-1290.15 1045.86,-2336.01 2336.01,-2336.01 1290.16,0 2336.02,1045.87 2336.02,2336.01 0,490.07 -151,944.82 -408.9,1320.46l-1743.98 0 0 -1622.89 -463.68 0 0 1622.89 -10.07 0 0 463.68 4323.24 0 0 -463.68 -1469.56 0c204.24,-395.63 319.76,-844.53 319.76,-1320.46 0,-1592.14 -1290.69,-2882.82 -2882.83,-2882.82 -1592.14,0 -2882.82,1290.69 -2882.82,2882.82 0,475.93 115.52,924.83 319.76,1320.46l-1599.43 0 0 463.68z"/>
   <path class="fil1" d="M3177.11 7204.43l0 94.19 -933.68 0c-35.01,0 -64.88,-12.37 -89.62,-37.09 -24.72,-24.74 -37.09,-54.61 -37.09,-89.61l0 -456.83 94.21 0 0 456.83c0,8.89 3.18,16.52 9.58,22.92 6.4,6.4 14.03,9.59 22.92,9.59l933.68 0zm1002.85 0c10.57,0 19.74,-3.91 27.52,-11.68 7.78,-7.78 11.68,-17.23 11.68,-28.35l0 -315.11c0,-7.23 -1.68,-13.89 -5,-20 -3.34,-6.11 -8.06,-10.98 -14.17,-14.58 -6.11,-3.62 -12.79,-5.43 -20.02,-5.43l-792.78 0c-11.11,0 -20.57,3.89 -28.35,11.66 -7.78,7.8 -11.66,17.23 -11.66,28.35l0 315.11c0,7.23 1.8,13.91 5.41,20 3.63,6.11 8.48,10.99 14.6,14.6 6.11,3.61 12.78,5.43 20,5.43l792.78 0zm0 94.19l-792.78 0c-37.23,0 -68.92,-13.06 -95.04,-39.18 -26.12,-26.12 -39.18,-57.81 -39.18,-95.04l0 -315.11c0,-37.24 13.06,-68.9 39.18,-95.02 26.12,-26.12 57.81,-39.18 95.04,-39.18l792.78 0c36.69,0 68.09,13.06 94.21,39.18 26.12,26.12 39.18,57.79 39.18,95.02l0 315.11c0,37.24 -13.06,68.92 -39.18,95.04 -26.12,26.12 -57.52,39.18 -94.21,39.18zm350.97 -280.11l871.97 0 0 -169.23c0,-11.11 -3.89,-20.55 -11.67,-28.35 -7.78,-7.78 -16.95,-11.66 -27.52,-11.66l-792.78 0c-7.23,0 -13.89,1.8 -20.01,5.43 -6.11,3.6 -10.97,8.46 -14.59,14.58 -3.61,6.11 -5.41,12.78 -5.41,20l0 169.23zm0 94.21l0 185.89 -94.21 0 0 -449.33c0,-37.24 13.06,-68.9 39.18,-95.02 26.12,-26.12 57.81,-39.18 95.04,-39.18l792.78 0c36.69,0 68.09,13.06 94.21,39.18 26.12,26.12 39.18,57.79 39.18,95.02l0 172.57 -50.86 43.35 50.86 43.35 0 190.06 -94.21 0 0 -185.89 -871.97 0zm2148.27 -303.45l-933.66 0c-8.91,0 -16.54,3.2 -22.94,9.59 -6.38,6.38 -9.57,14.03 -9.57,22.92l0 176.72 966.17 0 0 94.21 -966.17 0 0 59.19c0,8.89 3.2,16.52 9.57,22.92 6.4,6.4 14.04,9.59 22.94,9.59l933.66 0 0 94.19 -933.66 0c-35.03,0 -64.89,-12.37 -89.62,-37.09 -24.74,-24.74 -37.11,-54.61 -37.11,-89.61l0 -330.12c0,-35.01 12.37,-64.89 37.11,-89.61 24.72,-24.74 54.59,-37.09 89.62,-37.09l933.66 0 0 94.19zm67.53 -94.19l1061.22 0 0 94.19 -483.51 0 0 489.34 -94.19 0 0 -489.34 -483.51 0 0 -94.19zm2063.23 489.34c10.57,0 19.74,-3.91 27.52,-11.68 7.78,-7.78 11.68,-17.23 11.68,-28.35l0 -315.11c0,-7.23 -1.68,-13.89 -5,-20 -3.34,-6.11 -8.06,-10.98 -14.17,-14.58 -6.11,-3.62 -12.8,-5.43 -20.02,-5.43l-792.78 0c-11.11,0 -20.57,3.89 -28.35,11.66 -7.78,7.8 -11.66,17.23 -11.66,28.35l0 315.11c0,7.23 1.8,13.91 5.41,20 3.62,6.11 8.48,10.99 14.6,14.6 6.11,3.61 12.78,5.43 20,5.43l792.78 0zm0 94.19l-792.78 0c-37.24,0 -68.92,-13.06 -95.04,-39.18 -26.12,-26.12 -39.18,-57.81 -39.18,-95.04l0 -315.11c0,-37.24 13.06,-68.9 39.18,-95.02 26.12,-26.12 57.8,-39.18 95.04,-39.18l792.78 0c36.69,0 68.09,13.06 94.21,39.18 26.12,26.12 39.18,57.79 39.18,95.02l0 315.11c0,37.24 -13.06,68.92 -39.18,95.04 -26.12,26.12 -57.52,39.18 -94.21,39.18z"/>
   <path class="fil1" d="M3471.47 7530.74l103.57 0c11.06,0 21.17,0.48 30.4,1.38 9.21,0.95 17.62,2.72 25.25,5.32 7.65,2.6 14.49,6.08 20.43,10.52 5.94,4.37 11.13,10.11 15.69,17.21 4.65,6.89 8.01,14.33 10.11,22.2 2.05,7.85 3.07,16.17 3.07,24.99 0,14.4 -2.31,27.04 -6.89,37.89 -4.65,10.87 -11.4,20.02 -20.41,27.39 -9.01,7.44 -20.15,12.97 -33.47,16.74 -13.24,3.75 -28.47,5.59 -45.68,5.59l-50.46 0 0 101.61 -51.62 0 0 -270.83zm51.62 127.01l35.29 0c3.63,0 7.04,0 10.32,0 3.27,0 6.48,-0.12 9.7,-0.41 8.87,-0.26 16.31,-1.36 22.46,-3.27 6.15,-1.98 11.19,-4.72 15.09,-8.34 3.81,-3.55 6.68,-7.99 8.46,-13.31 1.84,-5.27 2.72,-11.35 2.72,-18.31 0,-4.37 -0.53,-8.61 -1.56,-12.69 -1.09,-4.03 -2.6,-7.72 -4.58,-11.06 -1.93,-3.36 -4.31,-6.15 -7.1,-8.54 -2.81,-2.33 -5.81,-4.03 -9.01,-5.06 -4.91,-1.5 -11.54,-2.46 -19.74,-3 -8.25,-0.55 -17.28,-0.83 -27.18,-0.83l-34.89 0 0 84.81zm247.75 143.82l-50.81 0 0 -195.84 50.81 0 0 195.84zm0 -229.03l-50.81 0 0 -43.02 50.81 0 0 43.02zm135.55 28.68c14.81,0 28.2,2.19 40.22,6.63 12.02,4.37 22.25,10.92 30.72,19.6 8.48,8.68 15.04,19.31 19.6,32.09 4.57,12.76 6.91,27.44 6.91,44.11 0,16.52 -2.33,31.21 -6.91,43.91 -4.56,12.76 -11.12,23.42 -19.6,32.09 -8.46,8.66 -18.7,15.22 -30.72,19.72 -12.02,4.45 -25.41,6.7 -40.22,6.7 -14.9,0 -28.42,-2.25 -40.5,-6.7 -12.09,-4.5 -22.32,-11.06 -30.79,-19.72 -8.46,-8.68 -15.02,-19.33 -19.67,-32.09 -4.72,-12.7 -7.03,-27.39 -7.03,-43.91 0,-16.67 2.31,-31.35 7.03,-44.11 4.65,-12.78 11.2,-23.42 19.67,-32.09 8.46,-8.68 18.7,-15.23 30.79,-19.6 12.09,-4.43 25.61,-6.63 40.5,-6.63zm0 167.57c6.82,0 13.11,-1.36 18.77,-4.03 5.74,-2.65 10.59,-6.63 14.61,-12.02 3.96,-5.32 7.11,-12.02 9.22,-20.22 2.12,-8.11 3.2,-17.67 3.2,-28.8 0,-11.06 -1.08,-20.7 -3.2,-28.89 -2.12,-8.19 -5.26,-14.95 -9.22,-20.27 -4.03,-5.39 -8.87,-9.37 -14.61,-12.02 -5.66,-2.67 -11.95,-4.03 -18.77,-4.03 -7.11,0 -13.45,1.36 -19.12,4.03 -5.74,2.65 -10.59,6.63 -14.61,12.02 -4.03,5.32 -7.11,12.09 -9.3,20.27 -2.24,8.2 -3.34,17.83 -3.34,28.89 0,11.13 1.1,20.69 3.34,28.8 2.19,8.2 5.26,14.9 9.3,20.22 4.03,5.39 8.87,9.37 14.61,12.02 5.67,2.67 12.02,4.03 19.12,4.03zm184.3 -138.27c17.89,-19.53 38.1,-29.3 60.63,-29.3 44.66,0 66.98,24.11 66.98,72.24l0 128.11 -50.79 0 0 -124.01c0,-10.04 -1.24,-17.88 -3.63,-23.56 -2.4,-5.67 -6.29,-9.49 -11.75,-11.47 -5.72,-1.86 -12.28,-2.26 -19.6,-1.24 -13.52,1.1 -26.97,9.42 -40.41,25.06l0 135.21 -50.81 0 0 -195.84 49.38 0 0 24.79zm265.01 175.56c-16.19,0 -30.45,-2.39 -42.87,-7.11 -12.51,-4.7 -23.03,-11.47 -31.56,-20.27 -8.46,-8.81 -15.02,-19.6 -19.53,-32.23 -4.58,-12.7 -6.82,-26.98 -6.82,-42.82 0,-16.12 2.24,-30.52 6.7,-43.23 4.51,-12.63 10.92,-23.41 19.31,-32.23 8.4,-8.73 18.65,-15.5 30.66,-20.07 12.09,-4.58 25.87,-6.89 41.32,-6.89 14.81,0 28.2,2.19 40.15,6.63 11.88,4.37 22.13,10.85 30.59,19.46 8.47,8.61 14.95,19.19 19.46,31.76 4.57,12.56 6.82,26.89 6.82,43.01l0 12.23 -142.98 0c0.41,10.23 1.91,19.12 4.5,26.49 2.6,7.37 6.01,13.45 10.32,18.17 4.22,4.77 9.2,8.25 14.95,10.51 5.74,2.24 12.02,3.41 18.79,3.41 10.57,0 19.46,-2.24 26.83,-6.82 7.31,-4.58 12.63,-12.37 15.98,-23.49l47.54 0c-1.85,10.16 -5.41,19.25 -10.51,27.11 -5.13,7.92 -11.61,14.6 -19.41,20 -7.78,5.46 -16.79,9.49 -26.97,12.28 -10.18,2.74 -21.31,4.1 -33.26,4.1zm43.02 -122.91c-1.98,-16.93 -6.96,-29.56 -14.95,-37.91 -7.99,-8.32 -18.22,-12.5 -30.85,-12.5 -12.44,0 -22.6,4.17 -30.59,12.5 -7.99,8.34 -12.99,20.98 -14.97,37.91l91.37 0zm178.22 122.91c-16.19,0 -30.45,-2.39 -42.87,-7.11 -12.51,-4.7 -23.03,-11.47 -31.56,-20.27 -8.46,-8.81 -15.02,-19.6 -19.53,-32.23 -4.57,-12.7 -6.82,-26.98 -6.82,-42.82 0,-16.12 2.24,-30.52 6.7,-43.23 4.5,-12.63 10.92,-23.41 19.31,-32.23 8.39,-8.73 18.65,-15.5 30.66,-20.07 12.09,-4.58 25.87,-6.89 41.32,-6.89 14.81,0 28.2,2.19 40.15,6.63 11.88,4.37 22.13,10.85 30.59,19.46 8.46,8.61 14.95,19.19 19.46,31.76 4.58,12.56 6.82,26.89 6.82,43.01l0 12.23 -142.99 0c0.41,10.23 1.91,19.12 4.51,26.49 2.6,7.37 6.01,13.45 10.32,18.17 4.22,4.77 9.21,8.25 14.95,10.51 5.74,2.24 12.02,3.41 18.79,3.41 10.57,0 19.46,-2.24 26.82,-6.82 7.32,-4.58 12.64,-12.37 15.98,-23.49l47.54 0c-1.85,10.16 -5.41,19.25 -10.52,27.11 -5.13,7.92 -11.61,14.6 -19.4,20 -7.78,5.46 -16.79,9.49 -26.97,12.28 -10.18,2.74 -21.31,4.1 -33.26,4.1zm43.01 -122.91c-1.98,-16.93 -6.96,-29.56 -14.95,-37.91 -7.99,-8.32 -18.22,-12.5 -30.85,-12.5 -12.44,0 -22.6,4.17 -30.59,12.5 -7.99,8.34 -12.99,20.98 -14.97,37.91l91.36 0zm208.55 -35.31c-2.93,-0.96 -6.36,-1.65 -10.25,-2.12 -3.89,-0.48 -8.2,-0.67 -13.04,-0.67 -8.68,0 -16.93,2.05 -24.65,6.08 -7.78,4.08 -14.88,10.37 -21.3,18.91l0 131.52 -50.81 0 0 -195.84 49.38 0 0 30.11c7.78,-11.75 16.31,-20.48 25.73,-26.15 9.37,-5.67 19.12,-8.46 29.3,-8.46 2.53,0 5.05,0.07 7.58,0.26 2.6,0.21 5.25,0.62 8.06,1.1l0 45.28zm326.8 -72.86l-137.24 0 0 71.69 118 0 0 44.25 -118 0 0 110.63 -51.62 0 0 -270.83 188.86 0 0 44.25zm127.44 26.22c14.81,0 28.2,2.19 40.22,6.63 12.02,4.37 22.25,10.92 30.71,19.6 8.48,8.68 15.04,19.31 19.6,32.09 4.58,12.76 6.91,27.44 6.91,44.11 0,16.52 -2.33,31.21 -6.91,43.91 -4.56,12.76 -11.11,23.42 -19.6,32.09 -8.46,8.66 -18.7,15.22 -30.71,19.72 -12.02,4.45 -25.41,6.7 -40.22,6.7 -14.9,0 -28.42,-2.25 -40.51,-6.7 -12.09,-4.5 -22.32,-11.06 -30.78,-19.72 -8.46,-8.68 -15.02,-19.33 -19.67,-32.09 -4.72,-12.7 -7.04,-27.39 -7.04,-43.91 0,-16.67 2.31,-31.35 7.04,-44.11 4.65,-12.78 11.2,-23.42 19.67,-32.09 8.46,-8.68 18.7,-15.23 30.78,-19.6 12.09,-4.43 25.61,-6.63 40.51,-6.63zm0 167.57c6.82,0 13.11,-1.36 18.77,-4.03 5.74,-2.65 10.58,-6.63 14.61,-12.02 3.96,-5.32 7.1,-12.02 9.22,-20.22 2.12,-8.11 3.2,-17.67 3.2,-28.8 0,-11.06 -1.07,-20.7 -3.2,-28.89 -2.12,-8.19 -5.27,-14.95 -9.22,-20.27 -4.03,-5.39 -8.87,-9.37 -14.61,-12.02 -5.66,-2.67 -11.95,-4.03 -18.77,-4.03 -7.11,0 -13.45,1.36 -19.12,4.03 -5.74,2.65 -10.59,6.63 -14.61,12.02 -4.03,5.32 -7.11,12.09 -9.3,20.27 -2.24,8.2 -3.34,17.83 -3.34,28.89 0,11.13 1.09,20.69 3.34,28.8 2.19,8.2 5.27,14.9 9.3,20.22 4.03,5.39 8.87,9.37 14.61,12.02 5.67,2.67 12.02,4.03 19.12,4.03zm254.97 -120.93c-2.93,-0.96 -6.36,-1.65 -10.25,-2.12 -3.89,-0.48 -8.2,-0.67 -13.04,-0.67 -8.68,0 -16.93,2.05 -24.65,6.08 -7.78,4.08 -14.88,10.37 -21.3,18.91l0 131.52 -50.81 0 0 -195.84 49.38 0 0 30.11c7.78,-11.75 16.31,-20.48 25.73,-26.15 9.37,-5.67 19.12,-8.46 29.3,-8.46 2.53,0 5.05,0.07 7.58,0.26 2.6,0.21 5.25,0.62 8.06,1.1l0 45.28zm333.35 -72.46l-82.35 0 0 226.17 -51.62 0 0 -226.17 -81.54 0 0 -44.66 215.51 0 0 44.66zm82.97 14.61c0,6.7 -0.07,13.4 -0.28,20.22 -0.19,6.77 -0.48,13.33 -0.74,19.6 17.76,-19.05 37.83,-28.61 60.22,-28.61 44.66,0 67,24.11 67,72.24l0 128.11 -50.81 0 0 -124.01c0,-13.52 -2.33,-23.22 -6.91,-29.23 -4.56,-6.01 -12.14,-9.01 -22.66,-9.01 -7.79,0 -15.44,2.33 -23.15,6.89 -7.65,4.58 -15.23,11.35 -22.67,20.15l0 135.21 -50.81 0 0 -270.83 50.81 0 0 59.27zm263.99 216.06c-16.19,0 -30.45,-2.39 -42.87,-7.11 -12.51,-4.7 -23.02,-11.47 -31.56,-20.27 -8.46,-8.81 -15.02,-19.6 -19.53,-32.23 -4.57,-12.7 -6.82,-26.98 -6.82,-42.82 0,-16.12 2.24,-30.52 6.7,-43.23 4.51,-12.63 10.92,-23.41 19.31,-32.23 8.39,-8.73 18.65,-15.5 30.66,-20.07 12.09,-4.58 25.87,-6.89 41.32,-6.89 14.81,0 28.2,2.19 40.15,6.63 11.88,4.37 22.13,10.85 30.59,19.46 8.46,8.61 14.95,19.19 19.46,31.76 4.58,12.56 6.82,26.89 6.82,43.01l0 12.23 -142.98 0c0.41,10.23 1.91,19.12 4.5,26.49 2.6,7.37 6.01,13.45 10.32,18.17 4.22,4.77 9.2,8.25 14.95,10.51 5.74,2.24 12.02,3.41 18.79,3.41 10.57,0 19.46,-2.24 26.83,-6.82 7.31,-4.58 12.63,-12.37 15.97,-23.49l47.54 0c-1.85,10.16 -5.41,19.25 -10.52,27.11 -5.12,7.92 -11.61,14.6 -19.4,20 -7.78,5.46 -16.79,9.49 -26.97,12.28 -10.18,2.74 -21.31,4.1 -33.26,4.1zm43.02 -122.91c-1.98,-16.93 -6.96,-29.56 -14.95,-37.91 -7.99,-8.32 -18.22,-12.5 -30.85,-12.5 -12.44,0 -22.6,4.17 -30.59,12.5 -7.99,8.34 -12.99,20.98 -14.97,37.91l91.37 0zm389.9 -108.17l-137.24 0 0 71.69 118 0 0 44.25 -118 0 0 110.63 -51.62 0 0 -270.83 188.86 0 0 44.25zm167.11 201.44c-8.82,9.9 -18.31,17.28 -28.54,22.27 -10.18,4.91 -20.91,7.37 -32.11,7.37 -44.52,0 -66.78,-24.11 -66.78,-72.39l0 -127.96 50.81 0 0 124c0,9.97 1.31,17.83 3.83,23.49 2.53,5.67 6.49,9.49 11.95,11.47 5.32,2.05 11.87,2.47 19.74,1.24 14.07,-1.09 27.37,-9.42 39.87,-24.99l0 -135.21 50.81 0 0 195.84 -49.57 0 0 -25.13zm189.83 25.39c-4.37,0.97 -8.94,1.65 -13.73,2.19 -4.7,0.55 -9.9,0.81 -15.5,0.81 -9.69,0 -17.81,-0.95 -24.37,-2.79 -6.56,-1.84 -11.94,-4.51 -16.11,-7.99 -4.24,-3.48 -7.37,-7.72 -9.49,-12.7 -2.12,-5.06 -3.69,-10.71 -4.72,-17.14 -1.03,-6.35 -1.57,-13.38 -1.65,-21.1 -0.05,-7.63 -0.05,-15.83 -0.05,-24.51l0 -75.58 -25.41 0 0 -37.29 25.41 0 0 -48.76 50.79 0 0 48.76 31.97 0 0 37.29 -31.97 0 0 94.3c0,6.27 0.43,11.4 1.17,15.36 0.81,3.91 2.05,6.98 3.62,9.15 1.57,2.26 3.48,3.76 5.72,4.5 2.26,0.83 4.86,1.24 7.8,1.24 5.19,0 10.72,-0.35 16.52,-1.03l0 35.29zm153.24 -25.39c-8.82,9.9 -18.31,17.28 -28.54,22.27 -10.18,4.91 -20.91,7.37 -32.11,7.37 -44.52,0 -66.78,-24.11 -66.78,-72.39l0 -127.96 50.81 0 0 124c0,9.97 1.31,17.83 3.83,23.49 2.53,5.67 6.49,9.49 11.95,11.47 5.32,2.05 11.87,2.47 19.74,1.24 14.07,-1.09 27.37,-9.42 39.87,-24.99l0 -135.21 50.81 0 0 195.84 -49.57 0 0 -25.13zm218.11 -128.58c-2.93,-0.96 -6.36,-1.65 -10.25,-2.12 -3.89,-0.48 -8.2,-0.67 -13.04,-0.67 -8.68,0 -16.93,2.05 -24.65,6.08 -7.78,4.08 -14.88,10.37 -21.3,18.91l0 131.52 -50.81 0 0 -195.84 49.37 0 0 30.11c7.78,-11.75 16.31,-20.48 25.73,-26.15 9.37,-5.67 19.12,-8.46 29.3,-8.46 2.53,0 5.06,0.07 7.58,0.26 2.6,0.21 5.25,0.62 8.06,1.1l0 45.28zm115.11 158.22c-16.19,0 -30.45,-2.39 -42.87,-7.11 -12.51,-4.7 -23.03,-11.47 -31.56,-20.27 -8.46,-8.81 -15.02,-19.6 -19.53,-32.23 -4.58,-12.7 -6.82,-26.98 -6.82,-42.82 0,-16.12 2.24,-30.52 6.7,-43.23 4.51,-12.63 10.92,-23.41 19.32,-32.23 8.39,-8.73 18.64,-15.5 30.66,-20.07 12.09,-4.58 25.87,-6.89 41.31,-6.89 14.81,0 28.2,2.19 40.15,6.63 11.87,4.37 22.13,10.85 30.59,19.46 8.46,8.61 14.95,19.19 19.46,31.76 4.57,12.56 6.82,26.89 6.82,43.01l0 12.23 -142.98 0c0.41,10.23 1.91,19.12 4.51,26.49 2.59,7.37 6.01,13.45 10.32,18.17 4.22,4.77 9.21,8.25 14.95,10.51 5.74,2.24 12.02,3.41 18.78,3.41 10.57,0 19.46,-2.24 26.83,-6.82 7.31,-4.58 12.63,-12.37 15.98,-23.49l47.54 0c-1.86,10.16 -5.41,19.25 -10.52,27.11 -5.13,7.92 -11.61,14.6 -19.41,20 -7.78,5.46 -16.79,9.49 -26.97,12.28 -10.18,2.74 -21.31,4.1 -33.26,4.1zm43.02 -122.91c-1.98,-16.93 -6.96,-29.56 -14.95,-37.91 -7.99,-8.32 -18.22,-12.5 -30.86,-12.5 -12.44,0 -22.6,4.17 -30.59,12.5 -7.99,8.34 -12.99,20.98 -14.97,37.91l91.37 0z"/>
  </g>
 </g>
</svg>
